<svg width="300" height="180" xmlns="http://www.w3.org/2000/svg">
  <!-- Sky gradient -->
  <defs>
    <linearGradient id="sky" x1="0%" y1="0%" x2="0%" y2="100%">
      <stop offset="0%" style="stop-color:#87CEEB;stop-opacity:1" />
      <stop offset="100%" style="stop-color:#E0F6FF;stop-opacity:1" />
    </linearGradient>
    <linearGradient id="ocean" x1="0%" y1="0%" x2="0%" y2="100%">
      <stop offset="0%" style="stop-color:#1E90FF;stop-opacity:1" />
      <stop offset="100%" style="stop-color:#000080;stop-opacity:1" />
    </linearGradient>
  </defs>
  
  <!-- Sky -->
  <rect width="300" height="180" fill="url(#sky)"/>
  
  <!-- Ocean -->
  <rect x="0" y="120" width="300" height="60" fill="url(#ocean)"/>
  
  <!-- Ship hull -->
  <path d="M50 120 L250 120 L240 140 L60 140 Z" fill="#2F4F4F"/>
  
  <!-- Ship deck -->
  <rect x="60" y="100" width="180" height="20" fill="#696969"/>
  
  <!-- Bridge structure -->
  <rect x="120" y="70" width="60" height="30" fill="#808080"/>
  
  <!-- Bridge windows -->
  <rect x="125" y="75" width="10" height="15" fill="#87CEEB"/>
  <rect x="140" y="75" width="10" height="15" fill="#87CEEB"/>
  <rect x="155" y="75" width="10" height="15" fill="#87CEEB"/>
  <rect x="170" y="75" width="10" height="15" fill="#87CEEB"/>
  
  <!-- Mast -->
  <rect x="145" y="40" width="10" height="30" fill="#2F4F4F"/>
  
  <!-- Flag -->
  <rect x="155" y="40" width="20" height="12" fill="#FF0000"/>
  
  <!-- Cargo containers -->
  <rect x="70" y="85" width="25" height="15" fill="#FF6347"/>
  <rect x="100" y="85" width="25" height="15" fill="#32CD32"/>
  <rect x="130" y="85" width="25" height="15" fill="#FFD700"/>
  <rect x="160" y="85" width="25" height="15" fill="#9370DB"/>
  <rect x="190" y="85" width="25" height="15" fill="#FF69B4"/>
  
  <!-- Waves -->
  <path d="M0 120 Q25 115 50 120 Q75 125 100 120 Q125 115 150 120 Q175 125 200 120 Q225 115 250 120 Q275 125 300 120 L300 180 L0 180 Z" fill="#4169E1"/>
  
  <!-- Sun -->
  <circle cx="50" cy="40" r="15" fill="#FFD700"/>
  
  <!-- Seagulls -->
  <path d="M20 30 Q25 25 30 30 Q25 35 20 30" fill="white" stroke="#333" stroke-width="0.5"/>
  <path d="M270 50 Q275 45 280 50 Q275 55 270 50" fill="white" stroke="#333" stroke-width="0.5"/>
</svg> 